<?xml version="1.0" standalone="no"?>
<!DOCTYPE svg PUBLIC "-//W3C//DTD SVG 1.1//EN" "http://www.w3.org/Graphics/SVG/1.1/DTD/svg11.dtd" >
<svg>
<metadata>
Created by FontForge 20090622 at Wed Jun  1 06:35:54 2016
 By deploy user
Copyright 2014 Google Inc. All Rights Reserved.
</metadata>
<defs>
<font id="NotoSansArmenian" horiz-adv-x="1248" >
  <font-face 
    font-family="Noto Sans Armenian"
    font-weight="400"
    font-stretch="normal"
    units-per-em="2048"
    panose-1="2 11 5 2 4 5 4 2 2 4"
    ascent="1638"
    descent="-410"
    bbox="-74 -555 2935 1706"
    underline-thickness="102"
    underline-position="-103"
    unicode-range="U+000D-U+FEFF"
  />
<missing-glyph horiz-adv-x="1249" 
d="M203 1462h841v-1462h-841v1462zM307 104h633v1254h-633v-1254z" />
    <glyph glyph-name="uniFB13" unicode="&#x574;&#x576;" horiz-adv-x="2470" 
d="M878 734q0 104 -37 189t-138 188t-101 206q0 112 74.5 175.5t202.5 63.5h576l139 -70q-26 -54 -45.5 -100t-19.5 -81q0 -50 96 -102l173 -96l8 -24q-113 -180 -179.5 -346.5t-66.5 -282.5q0 -151 70 -239.5t194 -88.5q137 0 206.5 94t69.5 273v517h176v-1010h-143
l-25 138h-10q-41 -70 -125 -113.5t-173 -43.5q-190 0 -306 126.5t-116 344.5q0 116 56 267t170 323q-168 92 -209 135.5t-41 101.5q0 29 9.5 63t26.5 76h-512q-46 0 -74 -25t-28 -76q0 -34 20.5 -64.5t51.5 -62.5l67 -70q63 -67 101 -148.5t38 -181.5v-790h-143l-25 138h-10
q-48 -75 -135 -116t-199 -41q-164 0 -262 95.5t-98 263.5v670h176v-623q0 -128 61.5 -193.5t177.5 -65.5q151 0 216 94.5t65 280.5v231z" />
    <glyph glyph-name="uniFB14" unicode="&#x574;&#x565;" horiz-adv-x="2521" 
d="M878 1418q-46 0 -74 -25t-28 -76q0 -34 20.5 -64.5t51.5 -62.5l67 -70q63 -67 101 -148.5t38 -181.5v-790h-143l-25 138h-10q-48 -75 -135 -116t-199 -41q-164 0 -262 95.5t-98 263.5v670h176v-623q0 -128 61.5 -193.5t177.5 -65.5q151 0 216 94.5t65 280.5v231
q0 104 -37 189t-138 188t-101 206q0 112 74.5 175.5t202.5 63.5h752v-546h723v-143h-723v-480q0 -128 61.5 -193.5t177.5 -65.5q151 0 216 94.5t65 280.5v130h176v-633h-143l-25 138h-10q-48 -75 -135 -116t-199 -41q-164 0 -262 95.5t-98 263.5v1078h-577z" />
    <glyph glyph-name="uniFB15" unicode="&#x574;&#x56b;" horiz-adv-x="2510" 
d="M878 1418q-46 0 -74 -25t-28 -76q0 -34 20.5 -64.5t51.5 -62.5l67 -70q63 -67 101 -148.5t38 -181.5v-790h-143l-25 138h-10q-48 -75 -135 -116t-199 -41q-164 0 -262 95.5t-98 263.5v670h176v-623q0 -128 61.5 -193.5t177.5 -65.5q151 0 216 94.5t65 280.5v231
q0 104 -37 189t-138 188t-101 206q0 112 74.5 175.5t202.5 63.5h752v-544q0 -42 -3 -76.5t-8 -65.5h12q48 75 136 117t200 42q163 0 261.5 -95.5t98.5 -263.5v-670h-176v623q0 128 -61.5 193.5t-177.5 65.5q-151 0 -216 -94.5t-65 -280.5v-1053h-176v1964h-578z" />
    <glyph glyph-name="uniFB16" unicode="&#x57e;&#x576;" horiz-adv-x="2524" 
d="M1053 -403h243v-143h-418v544q0 42 3 76.5t8 65.5h-12q-48 -77 -135.5 -118t-199.5 -41q-164 0 -262 95.5t-98 263.5v670h176v-623q0 -128 61.5 -193.5t177.5 -65.5q151 0 216 94.5t65 280.5v1053h631l139 -70q-26 -54 -45.5 -100t-19.5 -81q0 -50 96 -102l173 -96l8 -24
q-113 -180 -179.5 -346.5t-66.5 -282.5q0 -151 70 -239.5t194 -88.5q137 0 206.5 94t69.5 273v517h176v-1010h-143l-25 138h-10q-41 -70 -125 -113.5t-173 -43.5q-190 0 -306 126.5t-116 344.5q0 116 56 267t170 323q-168 92 -209 135.5t-41 101.5q0 29 9.5 63t26.5 76h-391
v-1821z" />
    <glyph glyph-name="uniFB17" unicode="&#x574;&#x56d;" horiz-adv-x="3130" 
d="M878 1418q-46 0 -74 -25t-28 -76q0 -34 20.5 -64.5t51.5 -62.5l67 -70q63 -67 101 -148.5t38 -181.5v-790h-143l-25 138h-10q-48 -75 -135 -116t-199 -41q-164 0 -262 95.5t-98 263.5v670h176v-623q0 -128 61.5 -193.5t177.5 -65.5q151 0 216 94.5t65 280.5v231
q0 104 -37 189t-138 188t-101 206q0 112 74.5 175.5t202.5 63.5h754v-544q0 -42 -3 -76.5t-8 -65.5h12q45 78 123.5 118.5t168.5 40.5q149 0 232.5 -89t83.5 -247l-3 -306q0 -128 61.5 -193.5t177.5 -65.5q151 0 216 94.5t65 280.5v507h176v-1010h-143l-25 138h-10
q-48 -75 -135 -116t-199 -41q-164 0 -262 95.5t-98 263.5l8 271v35q0 117 -48 176.5t-138 59.5q-131 0 -191.5 -87.5t-60.5 -279.5v-1061h-175v1964h-580z" />
    <glyph glyph-name="uni0548_uni0552" unicode="&#x548;&#x552;" horiz-adv-x="2707" 
d="M205 909q0 274 139 423.5t394 149.5q253 0 392 -148.5t139 -424.5v-909h-182v888q0 222 -88.5 329t-261.5 107q-175 0 -262.5 -107t-87.5 -328v-889h-182v909zM1675 1462h182v-364h87q115 0 180 -29.5t114 -91t112.5 -188t100.5 -169t114 -42.5h42v-160h-75
q-123 0 -192 62t-141 211.5t-123.5 198t-163.5 48.5h-55v-938h-182v1462z" />
    <glyph glyph-name="uni0578_uni0582" unicode="&#x578;&#x582;" horiz-adv-x="1930" 
d="M194 1010h143l25 -138h10q48 75 135 116t199 41q163 0 261.5 -95.5t98.5 -263.5v-670h-176v623q0 128 -61.5 193.5t-177.5 65.5q-151 0 -216 -94.5t-65 -280.5v-507h-176v1010zM1461 1010h175v-873h243v-137h-418v1010z" />
    <glyph glyph-name=".notdef" horiz-adv-x="1249" 
d="M203 1462h841v-1462h-841v1462zM307 104h633v1254h-633v-1254z" />
    <glyph glyph-name="null" unicode="&#xfeff;" horiz-adv-x="0" 
 />
    <glyph glyph-name="null" horiz-adv-x="0" 
 />
    <glyph glyph-name="nonmarkingreturn" unicode="&#xd;" horiz-adv-x="532" 
 />
    <glyph glyph-name="space" unicode=" " horiz-adv-x="532" 
 />
    <glyph glyph-name="space" unicode="&#xa0;" horiz-adv-x="532" 
 />
    <glyph glyph-name="uni0531" unicode="&#x531;" horiz-adv-x="1688" 
d="M1239 329q-51 -172 -179 -260.5t-323 -88.5q-254 0 -393 148.5t-139 424.5v909h182v-889q0 -221 87.5 -328t262.5 -107q173 0 261.5 107t88.5 329v888h182v-909q0 -37 -3 -73q14 2 29.5 3.5t32.5 1.5q156 0 230.5 -77.5t74.5 -231.5v-176h-176v129q0 203 -174 203h-20
q-13 0 -24 -3z" />
    <glyph glyph-name="uni0532" unicode="&#x532;" horiz-adv-x="1447" 
d="M205 909q0 274 139 423.5t394 149.5q252 0 391 -135.5t139 -379.5v-44h-182v61q0 165 -90.5 252.5t-258.5 87.5q-175 0 -262.5 -107t-87.5 -328v-188h898v-160h-898v-541h-182v909z" />
    <glyph glyph-name="uni0533" unicode="&#x533;" horiz-adv-x="1593" 
d="M1003 541h-319q-262 0 -406.5 119.5t-144.5 336.5q0 209 155.5 347t371.5 138q245 0 385 -143t140 -398v-240h348v-160h-348v-541h-182v541zM1003 701v246q0 180 -88 278t-255 98q-151 0 -244 -91t-93 -235q0 -146 92.5 -221t268.5 -75h319z" />
    <glyph glyph-name="uni0534" unicode="&#x534;" horiz-adv-x="1554" 
d="M1494 701v-160h-348v-541h-182v963q0 173 -88 267t-239 94q-148 0 -235 -91t-87 -244v-66h-182v49q0 237 135.5 373.5t368.5 136.5q235 0 372 -133t137 -367v-281h348z" />
    <glyph glyph-name="uni0535" unicode="&#x535;" horiz-adv-x="1467" 
d="M205 1462h182v-292h920v-160h-920v-437q0 -221 87.5 -328t262.5 -107q168 0 258.5 87.5t90.5 252.5v61h182v-44q0 -244 -139 -379.5t-392 -135.5q-254 0 -393 148.5t-139 424.5v909z" />
    <glyph glyph-name="uni0536" unicode="&#x536;" horiz-adv-x="1379" 
d="M168 437h175v-111q116 0 303.5 112.5t276.5 229.5q-58 -42 -129 -65t-171 -23q-197 0 -330 123t-133 317q0 201 147.5 332t368.5 131q236 0 376 -130t140 -338q0 -192 -105.5 -356t-335.5 -333h284q133 0 196.5 -58t63.5 -182v-111h-174v115q0 100 -127 100h-651v-215
h-175v462zM998 867q9 30 14 65t5 83q0 142 -95 227.5t-254 85.5q-149 0 -238.5 -83.5t-89.5 -224.5q0 -133 86.5 -213.5t238.5 -80.5q91 0 174 34t159 107z" />
    <glyph glyph-name="uni0537" unicode="&#x537;" horiz-adv-x="1316" 
d="M402 1462v-452h743v-160h-743v-690h430q177 0 255.5 -68t78.5 -219v-160h-182v126q0 85 -43.5 123t-132.5 38h-588v1462h182z" />
    <glyph glyph-name="uni0538" unicode="&#x538;" horiz-adv-x="1449" 
d="M1086 984q0 165 -90.5 252.5t-258.5 87.5q-175 0 -262.5 -107t-87.5 -328v-729h900v-160h-1082v909q0 274 139 423.5t394 149.5q252 0 391 -135.5t139 -379.5v-44h-182v61z" />
    <glyph glyph-name="uni0539" unicode="&#x539;" horiz-adv-x="1768" 
d="M205 889q0 290 169 442t485 152q280 0 445.5 -130.5t189.5 -366.5h214v-160h-214q0 -276 -106 -422t-300 -146q-163 0 -268 101t-105 253q0 167 115.5 270.5t321.5 103.5h160q-15 166 -133.5 252.5t-322.5 86.5q-247 0 -358 -113t-111 -342v-870h-182v889zM1312 826h-149
q-124 0 -191 -54t-67 -160q0 -91 49 -144t134 -53q118 0 171 91.5t53 319.5z" />
    <glyph glyph-name="uni053A" unicode="&#x53a;" horiz-adv-x="1580" 
d="M294 861.5q161 150.5 417 150.5h329v451h182v-451h298v-159h-298v-332q0 -245 -155.5 -393t-401.5 -148q-233 0 -382.5 139t-149.5 362q0 230 161 380.5zM1040 515v338h-329q-176 0 -282 -105.5t-106 -266.5q0 -155 94.5 -249.5t247.5 -94.5q175 0 275 101.5t100 276.5z
" />
    <glyph glyph-name="uni053B" unicode="&#x53b;" horiz-adv-x="1443" 
d="M220 1462h182v-464q0 -13 -2.5 -56t-7.5 -120h12q62 94 178 151t247 57q224 0 352.5 -124t128.5 -348v-19h-182v21q0 150 -82.5 231.5t-235.5 81.5q-168 0 -288 -114t-120 -295v-464h-182v1462z" />
    <glyph glyph-name="uni053C" unicode="&#x53c;" horiz-adv-x="870" 
d="M220 1462h182v-1302h408v-160h-590v1462z" />
    <glyph glyph-name="uni053D" unicode="&#x53d;" horiz-adv-x="1755" 
d="M220 1462h182v-292h531v-319q0 -133 58.5 -197.5t183.5 -64.5t181.5 67.5t56.5 194.5v319h182v-319q0 -196 -116.5 -307.5t-309.5 -111.5q-192 0 -305 113.5t-113 309.5v156h-349v-1011h-182v1462z" />
    <glyph glyph-name="uni053E" unicode="&#x53e;" horiz-adv-x="1477" 
d="M307 1462q0 -59 49.5 -100.5t144.5 -75.5l120 -44q167 113 353 174.5t344 61.5v-155q-121 0 -265 -41t-240 -105q274 -104 395 -259.5t121 -369.5q0 -238 -171 -403t-425 -165q-262 0 -420 154.5t-158 399.5q0 174 72 320t239 284q-184 56 -258.5 130.5t-74.5 193.5h174z
M636 1079q-153 -125 -222 -254.5t-69 -290.5q0 -179 108 -288t280 -109q184 0 295 110.5t111 298.5q0 181 -113 310.5t-390 222.5z" />
    <glyph glyph-name="uni053F" unicode="&#x53f;" horiz-adv-x="1478" 
d="M1092 464q0 13 2.5 56t7.5 120h-12q-64 -101 -168.5 -154.5t-234.5 -53.5q-222 0 -362.5 125.5t-140.5 346.5v558h182v-560q0 -151 89 -232t242 -81q166 0 280.5 110.5t114.5 278.5v192h182v-1170h-182v464z" />
    <glyph glyph-name="uni0540" unicode="&#x540;" horiz-adv-x="1271" 
d="M921 -87q0 54 -29 83t-105 46l-612 126l133 809q40 243 171 374t335 131q66 0 123.5 -16.5t103.5 -38.5t78 -44l47 -32l-118 -121q-117 94 -234 94q-142 0 -222 -89.5t-113 -283.5l-111 -668l470 -100q134 -27 195.5 -89.5t61.5 -180.5v-40h-174v40zM271 304zM794 178z
" />
    <glyph glyph-name="uni0541" unicode="&#x541;" horiz-adv-x="1368" 
d="M987 737q-66 -48 -161 -77.5t-207 -29.5q-192 0 -332.5 117t-140.5 293q0 187 148 315t368 128q246 0 389 -146t143 -391q0 -151 -45.5 -311t-142.5 -311l70 -41l90 -51.5t82 -50.5v-181l-138 80l-161 92q-23 12 -38 21q-97 -107 -203 -160t-233 -53q-155 0 -243.5 73.5
t-88.5 200.5q0 112 102 190t255 78q85 0 173 -27t191 -81q45 66 75.5 147.5t47.5 175.5zM769 280q-84 45 -148 68.5t-121 23.5q-75 0 -122.5 -33.5t-47.5 -88.5q0 -58 44 -89.5t111 -31.5q81 0 150.5 41t133.5 110zM1009 927v38q0 163 -97 263t-258 100q-140 0 -232 -78.5
t-92 -209.5q0 -119 88 -190.5t233 -71.5q96 0 194 42.5t164 106.5z" />
    <glyph glyph-name="uni0542" unicode="&#x542;" horiz-adv-x="1551" 
d="M1491 160v-160h-530v963q0 173 -88 267t-239 94q-148 0 -235 -91t-87 -244v-66h-182v49q0 237 135.5 373.5t368.5 136.5q235 0 372 -133t137 -367v-822h348z" />
    <glyph glyph-name="uni0543" unicode="&#x543;" horiz-adv-x="1416" 
d="M1094 160q0 342 -36 513.5t-120 266.5t-254 150q-160 -184 -257 -393.5t-97 -345.5q0 -98 63 -144.5t203 -46.5h498zM629 1267q139 97 297.5 154t348.5 57v-155q-252 0 -463 -120q140 -46 229 -124.5t140 -201.5t73 -318t22 -559h-679q-228 0 -342.5 82t-114.5 239
q0 163 102.5 388.5t271.5 421.5q-169 32 -366 53v155q206 -21 481 -72z" />
    <glyph glyph-name="uni0544" unicode="&#x544;" horiz-adv-x="1647" 
d="M1269 553q0 -276 -139 -424.5t-393 -148.5t-393 148.5t-139 424.5v909h182v-889q0 -221 87.5 -328t262.5 -107q173 0 261.5 107t88.5 329v888h530v-160h-348v-749z" />
    <glyph glyph-name="uni0545" unicode="&#x545;" horiz-adv-x="1350" 
d="M877 768v-8q161 -22 252.5 -116.5t91.5 -234.5q0 -200 -165.5 -314.5t-412.5 -114.5q-125 0 -240 19.5t-193 59.5v176q89 -44 204.5 -70.5t228.5 -26.5q187 0 287.5 73.5t100.5 198.5q0 133 -106.5 196.5t-312.5 63.5h-482v160h472q183 0 284.5 73t101.5 203
q0 93 -79 156t-201 63q-98 0 -186.5 -32.5t-183.5 -90.5l-92 131q98 71 222 110.5t241 39.5q201 0 335 -104.5t134 -272.5q0 -123 -81 -214.5t-220 -123.5z" />
    <glyph glyph-name="uni0546" unicode="&#x546;" horiz-adv-x="1346" 
d="M225.5 832.5q54.5 179.5 142.5 333.5q-94 7 -146.5 47t-75 113t-22.5 230h184q0 -144 22.5 -182.5t73 -50.5t196.5 -12l18 -30q-145 -264 -201 -447t-56 -332q0 -170 82.5 -266.5t231.5 -96.5q160 0 244 84.5t84 265.5v361h183v-385q0 -223 -140.5 -353t-369.5 -130
q-225 0 -365 142.5t-140 377.5q0 151 54.5 330.5z" />
    <glyph glyph-name="uni0547" unicode="&#x547;" horiz-adv-x="1340" 
d="M170 1462l1027 -190l-30 -170l-382 73q-252 -167 -352.5 -327.5t-100.5 -345.5q0 -181 89.5 -272t249.5 -91t248.5 85.5t88.5 264.5v114h182v-138q0 -221 -144 -352t-375 -131q-230 0 -379.5 143t-149.5 381q0 207 112.5 390.5t322.5 322.5l-436 81z" />
    <glyph glyph-name="uni0548" unicode="&#x548;" horiz-adv-x="1474" 
d="M205 909q0 274 139 423.5t394 149.5q253 0 392 -148.5t139 -424.5v-909h-182v888q0 222 -88.5 329t-261.5 107q-175 0 -262.5 -107t-87.5 -328v-889h-182v909z" />
    <glyph glyph-name="uni0549" unicode="&#x549;" horiz-adv-x="1346" 
d="M1127 -2q-92 6 -222.5 39t-325 131t-446.5 316l114 120q77 -69 163.5 -134.5t191.5 -126.5q192 168 269 257t118.5 178.5t41.5 189.5q0 179 -88.5 267t-267.5 88q-165 0 -256 -77.5t-91 -222.5v-45h-182v47q0 204 145 330t386 126q263 0 399.5 -126.5t136.5 -375.5
q0 -129 -47.5 -237t-130.5 -207t-287 -270q93 -44 194 -73t185 -39v-155z" />
    <glyph glyph-name="uni054A" unicode="&#x54a;" horiz-adv-x="1660" 
d="M1273 852q0 218 -95 336t-279 137v-977h-182v977q-186 -19 -280.5 -138.5t-94.5 -334.5v-188h-182v182q0 292 177 464.5t484 172.5q299 0 466.5 -168t167.5 -469v-846h-182v852z" />
    <glyph glyph-name="uni054B" unicode="&#x54b;" horiz-adv-x="1338" 
d="M346 326q68 0 118.5 8.5t78.5 22.5q0 74 -47.5 130.5t-143.5 130.5t-149 166t-53 221q0 202 153.5 340.5t379.5 138.5q237 0 374 -137.5t137 -361.5q0 -162 -113 -335t-325 -324h202q141 0 210.5 -58t69.5 -182v-111h-194v105q0 50 -28.5 80t-98.5 30h-571v-215h-175v462
h175v-111zM673 426q159 128 246.5 265.5t87.5 293.5q0 160 -87.5 250.5t-244.5 90.5q-151 0 -244.5 -84.5t-93.5 -236.5q0 -95 46.5 -169.5t126.5 -143t121.5 -130.5t41.5 -136z" />
    <glyph glyph-name="uni054C" unicode="&#x54c;" horiz-adv-x="1677" 
d="M1269 0h-182v888q0 222 -88.5 329t-261.5 107q-175 0 -262.5 -107t-87.5 -328v-889h-182v909q0 274 139 423.5t394 149.5q253 0 392 -148.5t139 -424.5v-117h348v-160h-348v-632z" />
    <glyph glyph-name="uni054D" unicode="&#x54d;" horiz-adv-x="1474" 
d="M205 1462h182v-889q0 -221 87.5 -328t262.5 -107q173 0 261.5 107t88.5 329v888h182v-909q0 -276 -139 -424.5t-393 -148.5t-393 148.5t-139 424.5v909z" />
    <glyph glyph-name="uni054E" unicode="&#x54e;" horiz-adv-x="1658" 
d="M1068 348l10 176h-12q-62 -99 -167 -153.5t-236 -54.5q-147 0 -262.5 57t-178 163.5t-62.5 251.5v191h182v-193q0 -151 88.5 -232t242.5 -81q167 0 281 110t114 279v600h182v-1302h348v-160h-530v348z" />
    <glyph glyph-name="uni054F" unicode="&#x54f;" horiz-adv-x="1204" 
d="M336.5 0q-98.5 20 -201.5 67v176q122 -60 222 -83t211 -23q152 0 241.5 66t89.5 169q0 111 -84.5 177.5t-293 150.5t-298 177.5t-89.5 230.5q0 167 141 271t335 104q118 0 219 -20t195 -62l-57 -152q-94 39 -179 57t-182 18q-122 0 -202 -61.5t-80 -153.5
q0 -81 65.5 -137t235 -123.5t266.5 -127t147.5 -139.5t50.5 -190q0 -184 -147.5 -298t-368.5 -114q-138 0 -236.5 20z" />
    <glyph glyph-name="uni0550" unicode="&#x550;" horiz-adv-x="1351" 
d="M205 982q0 234 136.5 367t372.5 133q232 0 368 -136t136 -374v-49h-182v66q0 153 -87 244t-235 91q-151 0 -239 -94t-88 -267v-963h-182v982z" />
    <glyph glyph-name="uni0551" unicode="&#x551;" horiz-adv-x="1386" 
d="M189 59v175q100 -48 218.5 -72.5t245.5 -24.5q194 0 307.5 76t113.5 193q0 111 -98.5 191.5t-293.5 124.5l-463 -130l-42 140l249 69v10q-136 48 -208 127t-72 185q0 166 150 263t378 97q225 0 376 -95.5t151 -264.5q0 -106 -72 -185t-208 -127v-10q173 -62 256.5 -158
t83.5 -220q0 -197 -167 -320t-429 -123q-157 0 -269 18t-207 61zM682 872q175 40 254.5 103t79.5 148q0 97 -93 153.5t-249 56.5q-157 0 -250 -57t-93 -153q0 -81 82 -144.5t269 -106.5z" />
    <glyph glyph-name="uni0552" unicode="&#x552;" horiz-adv-x="1252" 
d="M220 1462h182v-364h87q115 0 180 -29.5t114 -91t112.5 -188t100.5 -169t114 -42.5h42v-160h-75q-123 0 -192 62t-141 211.5t-123.5 198t-163.5 48.5h-55v-938h-182v1462z" />
    <glyph glyph-name="uni0553" unicode="&#x553;" horiz-adv-x="1687" 
d="M751 205h-43q-257 0 -420.5 154t-163.5 399q0 237 157 391t405 154h65v180h182v-180h68q252 0 406 -151.5t154 -393.5q0 -249 -161 -401t-428 -152h-39v-225h-182v225zM751 356v791h-55q-176 0 -280.5 -106.5t-104.5 -280.5q0 -188 113 -296t305 -108h22zM958 356
q190 0 303 109t113 295q0 176 -105 281.5t-280 105.5h-56v-791h25z" />
    <glyph glyph-name="uni0554" unicode="&#x554;" horiz-adv-x="1354" 
d="M257 358h-197v160h197v418q0 261 129 404t360 143q206 0 327 -107t121 -291q0 -198 -143.5 -303.5t-424.5 -105.5h-187v-158h754v-160h-754v-358h-182v358zM625 831q205 0 293.5 59t88.5 195q0 111 -69.5 176t-191.5 65q-148 0 -227.5 -95t-79.5 -281v-119h186z" />
    <glyph glyph-name="uni0555" unicode="&#x555;" horiz-adv-x="1618" 
d="M322 181.5q-177 201.5 -177 551.5q0 349 176 550.5t492 201.5q314 0 488 -200t174 -552t-174.5 -552.5t-487.5 -200.5q-314 0 -491 201.5zM1162.5 290.5q122.5 153.5 122.5 442.5q0 291 -122.5 442.5t-349.5 151.5q-228 0 -353 -154t-125 -440q0 -287 124.5 -441.5
t353.5 -154.5q227 0 349.5 153.5z" />
    <glyph glyph-name="uni0556" unicode="&#x556;" horiz-adv-x="1531" 
d="M409 2.5q-136 22.5 -279 76.5v167q125 -45 249 -74.5t239 -34.5v582q-237 42 -346.5 134t-109.5 254q0 158 130.5 256.5t327.5 98.5h180v-603q334 -37 475 -133t141 -276q0 -213 -183.5 -341.5t-497.5 -128.5q-190 0 -326 22.5zM800 699v-562q188 4 307 86.5t119 215.5
q0 109 -92.5 168t-333.5 92zM618 887v416q-124 0 -195 -56.5t-71 -142.5q0 -85 61 -140t205 -77z" />
    <glyph glyph-name="uni0559" unicode="&#x559;" horiz-adv-x="432" 
d="M331 888q-130 2 -208.5 89.5t-78.5 217.5q0 114 53 199.5t185 161.5l55 -82q-57 -32 -95 -93t-38 -149q0 -70 37 -114.5t90 -44.5v-185z" />
    <glyph glyph-name="uni055A" unicode="&#x55a;" horiz-adv-x="432" 
d="M95 970q57 32 95 93t38 149q0 70 -36.5 114.5t-90.5 44.5v185q130 -2 208.5 -89.5t78.5 -217.5q0 -115 -53.5 -200.5t-184.5 -160.5z" />
    <glyph glyph-name="uni055B" unicode="&#x55b;" horiz-adv-x="560" 
d="M120 1235l10 43l34 166q14 66 25 124t16 100h187l18 -30q-26 -93 -61.5 -189.5l-81.5 -213.5h-147z" />
    <glyph glyph-name="uni055C" unicode="&#x55c;" horiz-adv-x="614" 
d="M120 1235q0 63 16.5 122.5t63.5 99t102.5 70.5t55.5 95v46h186q0 -114 -36.5 -167.5t-130.5 -110.5t-94 -130v-25h-163z" />
    <glyph glyph-name="uni055D" unicode="&#x55d;" horiz-adv-x="590" 
d="M263 1235l-81.5 213.5t-61.5 189.5l18 30h187q5 -42 16 -100t25 -124l44 -209h-147z" />
    <glyph glyph-name="uni055E" unicode="&#x55e;" horiz-adv-x="914" 
d="M120 1262q0 187 116.5 311.5t299.5 124.5q121 0 194.5 -57t73.5 -149q0 -103 -85.5 -158t-227.5 -55v138q54 0 88 16.5t34 48.5q0 31 -23 52.5t-72 21.5q-97 0 -159 -75.5t-62 -218.5h-177z" />
    <glyph glyph-name="uni055F" unicode="&#x55f;" horiz-adv-x="849" 
d="M487 1530q-69 29 -113 29q-60 0 -88 -23.5t-28 -58.5q0 -55 32 -74.5t90 -19.5h426v-148h-444q-272 0 -272 240q0 107 78 169t198 62q71 0 164 -32z" />
    <glyph glyph-name="uni0561" unicode="&#x561;" horiz-adv-x="1944" 
d="M358 387q0 -128 61.5 -193.5t177.5 -65.5q151 0 216 94.5t65 280.5v507h176v-623q0 -128 61.5 -193.5t177.5 -65.5q151 0 216 94.5t65 280.5v507h176v-1010h-143l-25 138h-10q-44 -73 -129 -115t-189 -42q-135 0 -223 50t-121 143h-10q-49 -93 -142 -143t-216 -50
q-164 0 -262 95.5t-98 263.5v670h176v-623z" />
    <glyph glyph-name="uni0562" unicode="&#x562;" 
d="M890 623q0 128 -61.5 193.5t-177.5 65.5q-151 0 -216 -94.5t-65 -280.5v-364h730v-143h-730v-546h-176v1556h143l25 -138h10q48 75 135 116t199 41q163 0 261.5 -95.5t98.5 -263.5v-293h-176v246z" />
    <glyph glyph-name="uni0563" unicode="&#x563;" horiz-adv-x="1348" 
d="M1050 143h243v-143h-243v-546h-175v545q0 41 3 76t8 66h-12q-48 -78 -132 -118.5t-187 -40.5q-198 0 -310 143.5t-112 377.5q0 243 112 384.5t315 141.5q208 0 314 -157h8l25 138h143v-867zM802.5 787.5q-72.5 92.5 -219.5 92.5q-129 0 -198.5 -98t-69.5 -282
q0 -181 67.5 -275.5t203.5 -94.5q155 0 222 91t67 280q0 194 -72.5 286.5z" />
    <glyph glyph-name="uni0564" unicode="&#x564;" horiz-adv-x="1364" 
d="M194 1010h143l25 -138h10q48 75 135 116t199 41q163 0 261.5 -95.5t98.5 -263.5v-527h243v-143h-243v-546h-176v1169q0 128 -61.5 193.5t-177.5 65.5q-151 0 -216 -94.5t-65 -280.5v-507h-176v1010z" />
    <glyph glyph-name="uni0565" unicode="&#x565;" 
d="M878 633h176v-633h-143l-25 138h-10q-48 -75 -135 -116t-199 -41q-164 0 -262 95.5t-98 263.5v1216h176v-546h723v-143h-723v-480q0 -128 61.5 -193.5t177.5 -65.5q151 0 216 94.5t65 280.5v130z" />
    <glyph glyph-name="uni0566" unicode="&#x566;" horiz-adv-x="1244" 
d="M875 -1q0 41 3 76t8 66h-12q-48 -78 -132 -118.5t-187 -40.5q-198 0 -310 143.5t-112 377.5q0 243 112 384.5t315 141.5q208 0 314 -157h8l25 138h143v-1413h243v-143h-418v545zM802.5 787.5q-72.5 92.5 -219.5 92.5q-129 0 -198.5 -98t-69.5 -282q0 -181 67.5 -275.5
t203.5 -94.5q155 0 222 91t67 280q0 194 -72.5 286.5z" />
    <glyph glyph-name="uni0567" unicode="&#x567;" horiz-adv-x="1009" 
d="M719 -164q0 98 -37.5 131t-142.5 33h-345v1556h176v-546h533v-143h-533v-724h238q153 0 219.5 -68.5t66.5 -238.5h-175z" />
    <glyph glyph-name="uni0568" unicode="&#x568;" horiz-adv-x="1251" 
d="M194 1010h143l25 -138h10q48 75 135 116t199 41q163 0 261.5 -95.5t98.5 -263.5v-670h-176v623q0 128 -61.5 193.5t-177.5 65.5q-151 0 -216 -94.5t-65 -280.5v-910h700v-143h-876v1556z" />
    <glyph glyph-name="uni0569" unicode="&#x569;" horiz-adv-x="1433" 
d="M370 533v-1079h-176v1556h143l25 -138h10q46 75 134 116t214 41q204 0 341.5 -134t156.5 -364q42 -14 83.5 -30l84.5 -32l-45 -116l-60 23q-32 11 -61 20q-12 -203 -97.5 -313.5t-233.5 -110.5q-132 0 -215 84t-83 219q0 138 87.5 220t224.5 82q12 0 31 -1l73 -7
q15 -2 21 -2q-20 145 -113 229t-219 84q-175 0 -250.5 -81.5t-75.5 -265.5zM1038 394v36l-67 8q-18 2 -35 3t-29 1q-69 0 -110 -45.5t-41 -136.5q0 -70 38.5 -114.5t94.5 -44.5q78 0 113.5 74t35.5 219z" />
    <glyph glyph-name="uni056A" unicode="&#x56a;" horiz-adv-x="1308" 
d="M267.5 893q134.5 136 364.5 136q39 0 78.5 -5.5t71.5 -11.5l37 -8q18 -4 35 -9v561h176v-606l217 -51l-30 -132l-187 47v-307q0 -236 -116.5 -380.5t-323.5 -144.5q-202 0 -329.5 146t-127.5 375q0 254 134.5 390zM854 507v346q-16 4 -32 7l-33 6q-29 5 -66 9.5t-75 4.5
q-157 0 -245 -95t-88 -285q0 -178 73.5 -273.5t207.5 -95.5q133 0 195.5 90t62.5 286z" />
    <glyph glyph-name="uni056B" unicode="&#x56b;" horiz-adv-x="1247" 
d="M369 870q48 75 136 117t200 42q163 0 261.5 -95.5t98.5 -263.5v-670h-176v623q0 128 -61.5 193.5t-177.5 65.5q-151 0 -216 -94.5t-65 -280.5v-1053h-176v2102h175v-544q0 -42 -3 -76.5t-8 -65.5h12z" />
    <glyph glyph-name="uni056C" unicode="&#x56c;" horiz-adv-x="564" 
d="M194 1010h176v-1413h243v-143h-419v1556z" />
    <glyph glyph-name="uni056D" unicode="&#x56d;" horiz-adv-x="1867" 
d="M807 611v35q0 117 -48 176.5t-138 59.5q-131 0 -191.5 -87.5t-60.5 -279.5v-1061h-175v2102h175v-544q0 -42 -3 -76.5t-8 -65.5h12q45 78 123.5 118.5t168.5 40.5q149 0 232.5 -89t83.5 -247l-3 -306q0 -128 61.5 -193.5t177.5 -65.5q151 0 216 94.5t65 280.5v507h176
v-1010h-143l-25 138h-10q-48 -75 -135 -116t-199 -41q-164 0 -262 95.5t-98 263.5z" />
    <glyph glyph-name="uni056E" unicode="&#x56e;" horiz-adv-x="1265" 
d="M202 752.5q69 119.5 190 188.5t242 69h26l-124 158l-45 55l-47 57l-59 70l233 206l96 -109l-114 -101l93 -119l40 -54l43 -56l43 -55l39 -52h318v-143h-229q70 -125 95 -216t25 -174q0 -219 -129 -357t-332 -138q-212 0 -342.5 138.5t-130.5 360.5q0 152 69 271.5z
M846 690q-39 108 -91 177h-71q-158 0 -263.5 -102t-105.5 -286q0 -161 80 -254.5t212 -93.5q129 0 203.5 92t74.5 250q0 109 -39 217z" />
    <glyph glyph-name="uni056F" unicode="&#x56f;" horiz-adv-x="1247" 
d="M182 1556h176v-1169q0 -128 61.5 -193.5t177.5 -65.5q151 0 216 94.5t65 280.5v507h175v-1556h-175v544q0 42 3 76.5t8 65.5h-12q-48 -77 -135.5 -118t-199.5 -41q-164 0 -262 95.5t-98 263.5v1216z" />
    <glyph glyph-name="uni0570" unicode="&#x570;" horiz-adv-x="1172" 
d="M1019 380v-380h-176v333q0 128 -61.5 193.5t-177.5 65.5q-99 0 -174 -52.5t-109 -166.5l-191 44v56q0 285 79.5 548.5t219 404t320.5 140.5q90 0 169 -34.5t130 -89.5l-118 -113q-39 42 -88 66t-103 24q-178 0 -303 -266t-125 -573h12q52 74 133.5 116.5t202.5 42.5
q161 0 260.5 -95t99.5 -264z" />
    <glyph glyph-name="uni0571" unicode="&#x571;" horiz-adv-x="1230" 
d="M209.5 625.5q89.5 122.5 302.5 274t291.5 203.5t78.5 81q0 38 -96.5 49.5t-254 37t-232 85.5t-74.5 200h158q0 -61 22.5 -86t80.5 -43.5t208 -42.5l195 -31q101 -16 145 -48t44 -74q0 -50 -31.5 -87.5t-86.5 -77.5l-120 -89l215 -834h123v-143h-233l-35 138h-10
q-46 -71 -140.5 -114t-195.5 -43q-194 0 -319 108t-125 287q0 127 89.5 249.5zM710 881q-262 -198 -335 -298t-73 -205q0 -117 73.5 -184.5t196.5 -67.5q97 0 180 45.5t107 90.5z" />
    <glyph glyph-name="uni0572" unicode="&#x572;" 
d="M194 1010h143l25 -138h10q48 75 135 116t199 41q163 0 261.5 -95.5t98.5 -263.5v-1073h243v-143h-419v1169q0 128 -61.5 193.5t-177.5 65.5q-151 0 -216 -94.5t-65 -280.5v-507h-176v1010z" />
    <glyph glyph-name="uni0573" unicode="&#x573;" horiz-adv-x="1207" 
d="M165 671q10 99 36 210l-119 7v142l161 -8q86 259 223.5 401.5t311.5 142.5q90 0 169 -34.5t130 -89.5l-118 -113q-39 42 -88 66t-103 24q-103 0 -197 -109t-154 -301q313 -5 483 -162t170 -409v-438h-144l-25 138h-10q-44 -73 -126.5 -115t-171.5 -42
q-189 0 -313.5 136.5t-124.5 373.5q0 81 10 180zM758 748q-136 116 -378 120q-22 -97 -32.5 -184.5t-10.5 -180.5q0 -186 76.5 -281.5t213.5 -95.5q122 0 194.5 80.5t72.5 206.5q0 219 -136 335z" />
    <glyph glyph-name="uni0574" unicode="&#x574;" horiz-adv-x="1253" 
d="M878 734q0 104 -37 189t-138 188t-101 206q0 115 77.5 182t199.5 67q140 0 214.5 -76t74.5 -209h-167q0 66 -27.5 106.5t-95.5 40.5q-46 0 -74 -30t-28 -81q0 -34 20.5 -64.5t51.5 -62.5l67 -70q63 -67 101 -148.5t38 -181.5v-790h-143l-25 138h-10q-48 -75 -135 -116
t-199 -41q-164 0 -262 95.5t-98 263.5v670h176v-623q0 -128 61.5 -193.5t177.5 -65.5q151 0 216 94.5t65 280.5v231z" />
    <glyph glyph-name="uni0575" unicode="&#x575;" horiz-adv-x="556" 
d="M90 -409h14q85 0 129 54t44 145q0 48 -13 89l-28 89q-17 52 -29.5 112.5t-12.5 140.5v789h168v-797q0 -141 42 -238t42 -173q0 -147 -94.5 -247.5t-231.5 -100.5h-30v137z" />
    <glyph glyph-name="uni0576" unicode="&#x576;" horiz-adv-x="1243" 
d="M213.5 737q62.5 157 163.5 305q-168 92 -209 135.5t-41 101.5q0 51 28 119t73 156l142 -71l-47 -98q-21 -45 -21 -80q0 -50 96 -102l173 -96l8 -24q-111 -176 -178.5 -344t-67.5 -285q0 -151 70 -239.5t194 -88.5q137 0 206.5 94t69.5 273v517h176v-1010h-143l-25 138
h-10q-41 -70 -125 -113.5t-173 -43.5q-190 0 -306 126.5t-116 344.5q0 128 62.5 285z" />
    <glyph glyph-name="uni0577" unicode="&#x577;" horiz-adv-x="963" 
d="M116 813l-41 142q165 74 337 74q189 0 304.5 -99.5t115.5 -270.5q0 -145 -80.5 -302.5t-261.5 -395.5l-86 -112q-68 -87 -99 -136.5t-31 -73.5q0 -21 17 -34.5t52 -13.5h477v-137h-652q-51 0 -83.5 25t-32.5 74q0 81 208 343t299 432t91 327q0 106 -66 167.5t-174 61.5
q-81 0 -153 -20.5t-141 -50.5z" />
    <glyph glyph-name="uni0578" unicode="&#x578;" 
d="M194 1010h143l25 -138h10q48 75 135 116t199 41q163 0 261.5 -95.5t98.5 -263.5v-670h-176v623q0 128 -61.5 193.5t-177.5 65.5q-151 0 -216 -94.5t-65 -280.5v-507h-176v1010z" />
    <glyph glyph-name="uni0579" unicode="&#x579;" horiz-adv-x="703" 
d="M417 529q-161 111 -209 155t-68.5 88t-20.5 97q0 39 17 78t41 63h149q-15 -27 -23.5 -58.5t-8.5 -50.5q0 -30 13 -59.5t41 -56.5t280 -207l-209 -373.5t-187.5 -366.5t-83.5 -209q0 -38 69 -38h411v-137h-586q-116 0 -116 89q0 15 6 35.5t20 53.5t41.5 88.5l190.5 373
t233 435.5z" />
    <glyph glyph-name="uni057A" unicode="&#x57a;" horiz-adv-x="1943" 
d="M1573 140q-43 -73 -127 -116t-192 -43q-135 0 -223 50t-121 143h-10q-49 -93 -142 -143t-216 -50q-164 0 -262 95.5t-98 263.5v670h176v-623q0 -128 61.5 -193.5t177.5 -65.5q151 0 216 94.5t65 280.5v507h176v-623q0 -128 61.5 -193.5t177.5 -65.5q151 0 216 94.5
t65 280.5v507h175v-1556h-175v544q0 42 3 76.5t8 65.5h-12z" />
    <glyph glyph-name="uni057B" unicode="&#x57b;" horiz-adv-x="1197" 
d="M552 95q-23 44 -63 78.5t-86 68.5l-95 69q-83 60 -130 138.5t-47 183.5q0 169 140.5 282.5t344.5 113.5q196 0 323 -110t127 -284q0 -124 -73.5 -238t-261.5 -300t-278.5 -303.5t-90.5 -154.5q0 -21 17 -34.5t52 -13.5h588v-137h-763q-51 0 -83.5 25t-32.5 74
q0 78 81 187t188.5 213.5t142.5 141.5zM397.5 813q-84.5 -69 -84.5 -180q0 -162 150 -252.5t186 -180.5q109 126 172 233.5t63 201.5q0 113 -73.5 180t-196.5 67q-132 0 -216.5 -69z" />
    <glyph glyph-name="uni057C" unicode="&#x57c;" horiz-adv-x="1300" 
d="M194 1010h143l25 -138h10q46 74 131.5 115.5t190.5 41.5q189 0 305 -108t116 -284q0 -86 -29 -181.5t-155 -302.5v-10h319v-143h-498v117q113 205 150 313t37 190q0 121 -74 191.5t-199 70.5q-152 0 -224 -85t-72 -284v-513h-176v1010z" />
    <glyph glyph-name="uni057D" unicode="&#x57d;" 
d="M1054 0h-143l-25 138h-10q-48 -75 -135 -116t-199 -41q-164 0 -262 95.5t-98 263.5v670h176v-623q0 -128 61.5 -193.5t177.5 -65.5q151 0 216 94.5t65 280.5v507h176v-1010z" />
    <glyph glyph-name="uni057E" unicode="&#x57e;" horiz-adv-x="1247" 
d="M1053 1556v-1959h243v-143h-418v544q0 42 3 76.5t8 65.5h-12q-48 -77 -135.5 -118t-199.5 -41q-164 0 -262 95.5t-98 263.5v670h176v-623q0 -128 61.5 -193.5t177.5 -65.5q151 0 216 94.5t65 280.5v1053h175z" />
    <glyph glyph-name="uni057F" unicode="&#x57f;" horiz-adv-x="1936" 
d="M911 0l-25 138h-10q-48 -75 -135 -116t-199 -41q-164 0 -262 95.5t-98 263.5v670h176v-623q0 -128 61.5 -193.5t177.5 -65.5q151 0 216 94.5t65 280.5v507h143l25 -138h10q48 75 135 116t199 41q163 0 261.5 -95.5t98.5 -263.5v-670h-176v623q0 128 -61.5 193.5
t-177.5 65.5q-151 0 -216 -94.5t-65 -280.5v-507h-143z" />
    <glyph glyph-name="uni0580" unicode="&#x580;" 
d="M194 1010h143l25 -138h10q48 75 135 116t199 41q163 0 261.5 -95.5t98.5 -263.5v-670h-176v623q0 128 -61.5 193.5t-177.5 65.5q-151 0 -216 -94.5t-65 -280.5v-1053h-176v1556z" />
    <glyph glyph-name="uni0581" unicode="&#x581;" horiz-adv-x="1244" 
d="M1050 -65q0 -240 -126 -365t-364 -125q-97 0 -189.5 16.5t-164.5 48.5v162q75 -40 169 -59.5t194 -19.5q145 0 225.5 84.5t80.5 244.5q0 102 2 143t9 76h-12q-48 -78 -132 -118.5t-187 -40.5q-198 0 -310 143.5t-112 377.5q0 243 112 384.5t315 141.5q208 0 314 -157h8
l25 138h143v-1075zM802.5 787.5q-72.5 92.5 -219.5 92.5q-129 0 -198.5 -98t-69.5 -282q0 -182 67 -276t204 -94q155 0 222 91t67 280q0 194 -72.5 286.5z" />
    <glyph glyph-name="uni0582" unicode="&#x582;" horiz-adv-x="663" 
d="M194 1010h175v-873h243v-137h-418v1010z" />
    <glyph glyph-name="uni0583" unicode="&#x583;" horiz-adv-x="1931" 
d="M877 140q-48 -77 -135.5 -118t-199.5 -41q-164 0 -262 95.5t-98 263.5v670h176v-623q0 -128 61.5 -193.5t177.5 -65.5q151 0 216 94.5t65 280.5v1053h175v-544q0 -42 -3 -76.5t-8 -65.5h12q48 75 136 117t200 42q163 0 261.5 -95.5t98.5 -263.5v-670h-176v623
q0 128 -61.5 193.5t-177.5 65.5q-151 0 -216 -94.5t-65 -280.5v-1053h-176v544q0 42 3 76.5t8 65.5h-12z" />
    <glyph glyph-name="uni0584" unicode="&#x584;" horiz-adv-x="1244" 
d="M194 -271h-146v143h146v1138h143l25 -138h8q106 157 314 157q203 0 315 -141.5t112 -384.5q0 -234 -112 -377.5t-310 -143.5q-103 0 -187 40.5t-132 118.5h-12q5 -31 8 -66t3 -76v-127h687v-143h-687v-275h-175v275zM859.5 782q-69.5 98 -198.5 98q-147 0 -219.5 -92.5
t-72.5 -286.5q0 -189 67 -280t222 -91q136 0 203.5 94.5t67.5 275.5q0 184 -69.5 282z" />
    <glyph glyph-name="uni0585" unicode="&#x585;" horiz-adv-x="1218" 
d="M261 127.5q-128 145.5 -128 379.5t128 378t351 144q221 0 348 -143t127 -379q0 -234 -132 -379.5t-349 -145.5t-345 145.5zM832.5 227q72.5 96 72.5 280q0 182 -73.5 277.5t-223.5 95.5q-293 0 -293 -373q0 -184 72.5 -280t222.5 -96t222.5 96z" />
    <glyph glyph-name="uni0586" unicode="&#x586;" horiz-adv-x="1350" 
d="M562 -14q-117 5 -253 37.5t-200 69.5v152q81 -39 205 -70t248 -40v580q-216 57 -323.5 153t-107.5 243q0 157 142.5 259t350.5 102q20 0 51.5 -2.5t61.5 -7.5v-636q287 -82 391 -182t104 -250q0 -176 -146 -288.5t-349 -119.5v-478h-175v478zM562 1323q-108 0 -177 -59
t-69 -154q0 -83 58 -139.5t188 -96.5v449zM737 135q144 9 228.5 77t84.5 176q0 106 -77.5 172.5t-235.5 106.5v-532z" />
    <glyph glyph-name="uni0587" unicode="&#x587;" horiz-adv-x="1348" 
d="M358 1556v-1169q0 -128 61.5 -193.5t177.5 -65.5q151 0 216 94.5t65 280.5v507h176v-873h243v-137h-386l-25 138h-10q-48 -75 -135 -116t-199 -41q-164 0 -262 95.5t-98 263.5v1216h176z" />
    <glyph glyph-name="uni0589" unicode="&#x589;" horiz-adv-x="551" 
d="M361.5 194.5q31.5 -32.5 31.5 -93.5t-31.5 -95.5t-88.5 -34.5q-55 0 -85.5 33.5t-30.5 96.5q0 61 29.5 93.5t86.5 32.5t88.5 -32.5zM363 1012q30 -33 30 -96q0 -60 -31.5 -94t-88.5 -34q-56 0 -86 34t-30 94q0 63 29 96t87 33q60 0 90 -33z" />
    <glyph glyph-name="uni058A" unicode="&#x58a;" horiz-adv-x="903" 
d="M112 692h185q0 -60 39 -97.5t120 -37.5q140 0 320 39l37 -84q-91 -54 -191 -80t-202 -26q-160 0 -234 69.5t-74 216.5z" />
    <glyph glyph-name="uni058F" unicode="&#x58f;" horiz-adv-x="1526" 
d="M1013 826q-9 199 -95.5 295.5t-253.5 96.5q-168 0 -258.5 -87.5t-90.5 -252.5v-61h-182v44q0 244 139 379.5t391 135.5q249 0 387.5 -143t144.5 -407h271v-150h-271v-145h271v-150h-271v-381h-182v381h-271v150h271v145h-271v150h271z" />
    </font>
</defs>
</svg>
