<?xml version="1.0" standalone="no"?>
<!DOCTYPE svg PUBLIC "-//W3C//DTD SVG 1.1//EN" "http://www.w3.org/Graphics/SVG/1.1/DTD/svg11.dtd" >
<svg>
<metadata>
Created by FontForge 20090622 at Wed Jun  1 06:35:21 2016
 By deploy user
Copyright 2014 Google Inc. All Rights Reserved.
</metadata>
<defs>
<font id="NotoSansArmenian-Bold" horiz-adv-x="1335" >
  <font-face 
    font-family="Noto Sans Armenian"
    font-weight="700"
    font-stretch="normal"
    units-per-em="2048"
    panose-1="2 11 8 2 4 5 4 2 2 4"
    ascent="1638"
    descent="-410"
    bbox="-69 -537 3203 1755"
    underline-thickness="102"
    underline-position="-103"
    unicode-range="U+000D-U+FEFF"
  />
<missing-glyph horiz-adv-x="1229" 
d="M193 1462h841v-1462h-841v1462zM297 104h633v1254h-633v-1254z" />
    <glyph glyph-name="uniFB13" unicode="&#x574;&#x576;" horiz-adv-x="2717" 
d="M1972 1143l8 -34q-63 -155 -108.5 -328t-45.5 -294q0 -134 49 -200.5t144 -66.5q109 0 165 86.5t56 256.5v466h301v-1029h-234l-37 132h-17q-43 -66 -120 -108.5t-195 -42.5q-192 0 -305.5 129.5t-113.5 351.5q0 121 41.5 258t124.5 282q-94 33 -143 97.5t-49 143.5
q0 43 9 88h-502q-92 0 -92 -80q0 -44 80.5 -133.5t124 -189t43.5 -218.5v-710h-234l-37 132h-17q-43 -69 -122.5 -110t-191.5 -41q-186 0 -286.5 97.5t-100.5 280.5v670h301v-610q0 -97 46.5 -148t124.5 -51q105 0 160.5 87t55.5 256v103q0 94 -34.5 178.5t-127 201
t-92.5 211.5q0 135 112.5 217t284.5 82h581l260 -84q-18 -46 -31.5 -86.5t-13.5 -75.5q0 -57 48.5 -96.5t129.5 -70.5z" />
    <glyph glyph-name="uniFB14" unicode="&#x574;&#x565;" horiz-adv-x="2710" 
d="M1539 1331h-539q-92 0 -92 -80q0 -44 80.5 -133.5t124 -189t43.5 -218.5v-710h-234l-37 132h-17q-43 -69 -122.5 -110t-191.5 -41q-186 0 -286.5 97.5t-100.5 280.5v670h301v-610q0 -97 46.5 -148t124.5 -51q105 0 160.5 87t55.5 256v103q0 94 -34.5 178.5t-127 201
t-92.5 211.5q0 135 112.5 217t284.5 82h842v-527h718v-225h-718v-385q0 -97 46.5 -148t124.5 -51q105 0 160.5 87t55.5 256v31h301v-594h-234l-37 132h-17q-43 -69 -122.5 -110t-191.5 -41q-186 0 -286.5 97.5t-100.5 280.5v972z" />
    <glyph glyph-name="uniFB15" unicode="&#x574;&#x56b;" horiz-adv-x="2696" 
d="M1000 1331q-92 0 -92 -80q0 -44 80.5 -133.5t124 -189t43.5 -218.5v-710h-234l-37 132h-17q-43 -69 -122.5 -110t-191.5 -41q-186 0 -286.5 97.5t-100.5 280.5v670h301v-610q0 -97 46.5 -148t124.5 -51q105 0 160.5 87t55.5 256v103q0 94 -34.5 178.5t-127 201
t-92.5 211.5q0 135 112.5 217t284.5 82h842v-418q0 -82 -15 -241h18q43 71 119.5 111t179.5 40q184 0 285.5 -97.5t101.5 -280.5v-670h-302v606q0 97 -46.5 148t-124.5 51q-105 0 -160.5 -87t-55.5 -256v-989h-301v1858h-539z" />
    <glyph glyph-name="uniFB16" unicode="&#x57e;&#x576;" horiz-adv-x="2876" 
d="M2131 1143l8 -34q-63 -155 -108.5 -328t-45.5 -294q0 -134 49 -200.5t144 -66.5q109 0 165 86.5t56 256.5v466h301v-1029h-234l-37 132h-17q-43 -66 -120 -108.5t-195 -42.5q-192 0 -305.5 129.5t-113.5 351.5q0 121 41.5 258t124.5 282q-94 33 -143 97.5t-49 143.5
q0 43 9 88h-504v-1633h334v-225h-635v418q0 82 15 241h-18q-43 -71 -118 -111t-181 -40q-186 0 -286.5 97.5t-100.5 280.5v670h301v-610q0 -97 46.5 -148t124.5 -51q105 0 160.5 87t55.5 256v993h883l260 -84q-18 -46 -31.5 -86.5t-13.5 -75.5q0 -57 48.5 -96.5t129.5 -70.5
z" />
    <glyph glyph-name="uniFB17" unicode="&#x574;&#x56d;" horiz-adv-x="3384" 
d="M1000 1331q-92 0 -92 -80q0 -44 80.5 -133.5t124 -189t43.5 -218.5v-710h-234l-37 132h-17q-43 -69 -122.5 -110t-191.5 -41q-186 0 -286.5 97.5t-100.5 280.5v670h301v-610q0 -97 46.5 -148t124.5 -51q105 0 160.5 87t55.5 256v103q0 94 -34.5 178.5t-127 201
t-92.5 211.5q0 135 112.5 217t284.5 82h842v-418q0 -82 -15 -241h18q45 70 124.5 110.5t162.5 40.5q184 0 289.5 -100t105.5 -278q0 -26 -1 -57l-7 -132q-2 -33 -2 -62q0 -97 46.5 -148t124.5 -51q105 0 160.5 87t55.5 256v466h301v-1029h-234l-37 132h-17
q-43 -69 -122.5 -110t-191.5 -41q-186 0 -286.5 97.5t-100.5 280.5q0 51 5 111t5 112q0 223 -175 223q-103 0 -156 -87t-53 -255v-990h-301v1858h-539z" />
    <glyph glyph-name="uni0548_uni0552" unicode="&#x548;&#x552;" horiz-adv-x="2776" 
d="M1342 936v-936h-305v890q0 168 -66 252.5t-205 84.5q-131 0 -201 -79.5t-70 -257.5v-890h-305v936q0 256 155 401t421 145t421 -145t155 -401zM1646 1462h305v-320h86q113 0 173.5 -25.5t115.5 -82t117 -181.5t99.5 -176t106.5 -51h42v-251h-75q-83 0 -142.5 24
t-111.5 80.5t-91 134.5l-79.5 153t-83 99.5t-126.5 24.5h-31v-891h-305v1462z" />
    <glyph glyph-name="uni0578_uni0582" unicode="&#x578;&#x582;" horiz-adv-x="2116" 
d="M179 0v1029h234l37 -132h17q43 69 122.5 110t191.5 41q184 0 285.5 -97.5t101.5 -280.5v-670h-301v606q0 97 -46.5 148t-124.5 51q-105 0 -160.5 -87t-55.5 -256v-462h-301zM1444 1029h301v-804h335v-225h-636v1029z" />
    <glyph glyph-name=".notdef" horiz-adv-x="1229" 
d="M193 1462h841v-1462h-841v1462zM297 104h633v1254h-633v-1254z" />
    <glyph glyph-name="null" unicode="&#xfeff;" horiz-adv-x="0" 
 />
    <glyph glyph-name="null" horiz-adv-x="0" 
 />
    <glyph glyph-name="nonmarkingreturn" unicode="&#xd;" horiz-adv-x="532" 
 />
    <glyph glyph-name="space" unicode=" " horiz-adv-x="532" 
 />
    <glyph glyph-name="space" unicode="&#xa0;" horiz-adv-x="532" 
 />
    <glyph glyph-name="uni0531" unicode="&#x531;" horiz-adv-x="1763" 
d="M1301 289q-63 -146 -203.5 -227.5t-331.5 -81.5q-266 0 -421 145t-155 401v936h305v-890q0 -168 66 -252.5t205 -84.5t205 84.5t66 252.5v890h305v-945q12 2 25 3.5t27 1.5q164 0 246.5 -87t82.5 -259v-176h-266v129q0 88 -24.5 126t-81.5 38q-15 0 -27.5 -1t-22.5 -3z
" />
    <glyph glyph-name="uni0532" unicode="&#x532;" horiz-adv-x="1531" 
d="M495 722h889v-251h-889v-471h-305v936q0 256 155 401t421 145t421 -145t155 -401v-53h-305v7q0 168 -66 252.5t-205 84.5q-131 0 -201 -79.5t-70 -257.5v-168z" />
    <glyph glyph-name="uni0533" unicode="&#x533;" horiz-adv-x="1583" 
d="M951 471h-278q-262 0 -408.5 132.5t-146.5 373.5q0 232 153.5 369t417.5 137q283 0 425 -149t142 -464v-148h282v-251h-282v-471h-305v471zM951 722v124q0 195 -64 289.5t-200 94.5q-120 0 -184.5 -66t-64.5 -187q0 -125 66 -190t208 -65h239z" />
    <glyph glyph-name="uni0534" unicode="&#x534;" horiz-adv-x="1582" 
d="M1210 0h-305v890q0 178 -59 257.5t-182 79.5t-182 -79.5t-59 -257.5v-7h-305v53q0 259 145.5 402.5t400.5 143.5q254 0 400 -143t146 -403v-214h327v-251h-327v-471z" />
    <glyph glyph-name="uni0535" unicode="&#x535;" horiz-adv-x="1529" 
d="M495 572q0 -168 66 -252.5t205 -84.5t205 84.5t66 252.5v7h305v-53q0 -256 -155 -401t-421 -145t-421 145t-155 401v936h305v-433h889v-251h-889v-206z" />
    <glyph glyph-name="uni0536" unicode="&#x536;" horiz-adv-x="1449" 
d="M153 487h255v-112q64 0 182 67t195 155q-33 -8 -69 -12.5t-68 -4.5q-203 0 -353 127.5t-150 312.5q0 208 155 335.5t401 127.5q240 0 388 -131.5t148 -319.5q0 -176 -86.5 -329t-267.5 -327h227q164 0 217 -49.5t53 -210.5v-141h-264v55q0 71 -26.5 90.5t-100.5 19.5
h-581v-165h-255v512zM911 889q8 23 14 62t6 71q0 94 -68 156t-174 62q-103 0 -170.5 -58.5t-67.5 -161.5q0 -91 65 -148t164 -57q62 0 118 15.5t113 58.5z" />
    <glyph glyph-name="uni0537" unicode="&#x537;" horiz-adv-x="1329" 
d="M510 1462v-433h684v-251h-684v-527h267q197 0 302.5 -97t105.5 -277v-177h-305v153q0 75 -33 111t-108 36h-534v1462h305z" />
    <glyph glyph-name="uni0538" unicode="&#x538;" horiz-adv-x="1520" 
d="M495 251h878v-251h-1183v936q0 256 155 401t421 145t421 -145t155 -401v-53h-305v7q0 168 -66 252.5t-205 84.5q-131 0 -201 -79.5t-70 -257.5v-639z" />
    <glyph glyph-name="uni0539" unicode="&#x539;" horiz-adv-x="1936" 
d="M190 805q0 205 96.5 359t279 236.5t425.5 82.5q279 0 464 -125t222 -341h214v-251h-214q0 -150 -62.5 -262.5t-186 -179t-277.5 -66.5q-192 0 -314 104.5t-122 271.5q0 111 57 198.5t163 136t247 48.5h190q-22 96 -127.5 152.5t-263.5 56.5q-234 0 -360 -111t-126 -320
v-795h-305v805zM1161 513q106 0 158.5 60.5t52.5 192.5h-169q-78 0 -123 -35.5t-45 -96.5q0 -50 35.5 -85.5t90.5 -35.5z" />
    <glyph glyph-name="uni053A" unicode="&#x53a;" horiz-adv-x="1583" 
d="M272 882.5q154 146.5 421 146.5h258v433h305v-433h282v-251h-282v-184q0 -301 -142.5 -457t-424.5 -156q-264 0 -417.5 137t-153.5 369q0 249 154 395.5zM951 618v160h-209q-152 0 -228 -73t-76 -218q0 -117 67.5 -184t191.5 -67q135 0 194.5 92t59.5 290z" />
    <glyph glyph-name="uni053B" unicode="&#x53b;" horiz-adv-x="1539" 
d="M205 1463h305v-381q0 -23 -1 -45l-2 -47q-2 -26 -5 -57l-7 -74h17q73 99 171 145t236 46q234 0 368 -138t134 -372v-134h-305v100q0 145 -68 217t-215 72q-162 0 -242.5 -82.5t-80.5 -245.5v-467h-305v1463z" />
    <glyph glyph-name="uni053C" unicode="&#x53c;" horiz-adv-x="943" 
d="M205 1462h305v-1211h388v-251h-693v1462z" />
    <glyph glyph-name="uni053D" unicode="&#x53d;" horiz-adv-x="1972" 
d="M205 1462h305v-175h636v-354q0 -141 45.5 -203t142.5 -62q96 0 139.5 61t43.5 204v354h305v-369q0 -245 -124.5 -375t-363.5 -130q-244 0 -368.5 122.5t-124.5 362.5v138h-331v-1036h-305v1462z" />
    <glyph glyph-name="uni053E" unicode="&#x53e;" horiz-adv-x="1557" 
d="M423 1462q0 -54 37 -87t105 -59l111 -41q159 95 353.5 149t393.5 54v-255q-118 0 -238 -20t-198 -55q205 -86 321 -241t116 -352q0 -234 -183 -404.5t-463 -170.5q-283 0 -455.5 154.5t-172.5 399.5q0 165 71.5 301.5t220.5 250.5q-190 73 -257 157.5t-67 218.5h305z
M717 978q-121 -82 -189 -195t-68 -245q0 -138 86 -221.5t232 -83.5q151 0 243.5 88t92.5 232q0 139 -97 243.5t-300 181.5z" />
    <glyph glyph-name="uni053F" unicode="&#x53f;" horiz-adv-x="1573" 
d="M1079 381q0 23 1 45l3 48q0 25 4 57l7 73h-17q-73 -99 -171 -145t-236 -46q-234 0 -368 138t-134 372v539h305v-505q0 -145 68 -217t215 -72q162 0 242.5 82.5t80.5 245.5v291h305v-1287h-305v381z" />
    <glyph glyph-name="uni0540" unicode="&#x540;" horiz-adv-x="1474" 
d="M970 -142q0 78 -44.5 125t-131.5 69l-95 25l-519 144l225 767q77 262 214.5 378t355.5 116q66 0 127.5 -16t120 -44t153.5 -92l-187 -198q-47 40 -98.5 68.5t-116.5 28.5q-119 0 -189 -65.5t-111 -207.5l-161 -559l354 -101q231 -67 319.5 -156.5t88.5 -237.5v-157h-305
v113z" />
    <glyph glyph-name="uni0541" unicode="&#x541;" horiz-adv-x="1408" 
d="M921 687q-95 -46 -156 -56.5t-131 -10.5q-210 0 -356.5 121t-146.5 299q0 192 149.5 317.5t386.5 125.5q263 0 422.5 -148t159.5 -389q0 -159 -42 -304t-124 -289l16 -8q11 -7 27.5 -15l35.5 -18l39 -20l102 -51v-241l-339 177q-97 -99 -217.5 -148t-246.5 -49
q-163 0 -267.5 77t-104.5 197q0 130 102 214t255 84q85 0 175.5 -24.5t178.5 -63.5q19 32 38.5 81.5t30.5 89.5zM725 286q-54 26 -106 41t-94 15q-58 0 -84 -25t-26 -60q0 -30 26.5 -54t78.5 -24q43 0 95.5 23.5t109.5 83.5zM943 967v48q0 94 -78.5 158.5t-195.5 64.5
q-105 0 -166.5 -52t-61.5 -146q0 -86 61 -135.5t164 -49.5q90 0 156 30t121 82z" />
    <glyph glyph-name="uni0542" unicode="&#x542;" horiz-adv-x="1582" 
d="M905 0v890q0 178 -59 257.5t-182 79.5t-182 -79.5t-59 -257.5v-7h-305v53q0 259 145.5 402.5t400.5 143.5q254 0 400 -143t146 -403v-685h327v-251h-632z" />
    <glyph glyph-name="uni0543" unicode="&#x543;" horiz-adv-x="1502" 
d="M1072 251q0 270 -33 412t-107 230t-203 137q-110 -124 -197 -312.5t-87 -292.5q0 -92 62 -133t209 -41h356zM658 1296q128 81 329 131.5t390 50.5v-251q-261 0 -410 -44q154 -62 241.5 -188.5t128 -354t40.5 -640.5h-770q-147 0 -256 43t-167.5 121.5t-58.5 179.5
q0 80 17.5 160t53.5 164.5t80.5 164.5t164.5 254l-308 31v251l428 -58z" />
    <glyph glyph-name="uni0544" unicode="&#x544;" horiz-adv-x="1684" 
d="M1342 526q0 -256 -155 -401t-421 -145t-421 145t-155 401v936h305v-890q0 -168 66 -252.5t205 -84.5t205 84.5t66 252.5v890h632v-251h-327v-685z" />
    <glyph glyph-name="uni0545" unicode="&#x545;" horiz-adv-x="1391" 
d="M909 786v-18q174 -24 271 -112.5t97 -229.5q0 -209 -163.5 -327.5t-415.5 -118.5q-162 0 -284 20t-209 59v273q89 -44 213 -70.5t232 -26.5q140 0 223.5 54t83.5 149q0 96 -90.5 146.5t-266.5 50.5h-445v251h474q136 0 209.5 47t73.5 138q0 75 -60 117t-160 42
q-79 0 -157.5 -22.5t-167.5 -74.5l-135 214q111 65 233.5 100.5t269.5 35.5q221 0 359 -97.5t138 -268.5q0 -127 -88 -217.5t-235 -113.5z" />
    <glyph glyph-name="uni0546" unicode="&#x546;" horiz-adv-x="1433" 
d="M174.5 827.5q53.5 153.5 177.5 328.5q-120 23 -176.5 114.5t-56.5 285.5h303q0 -114 85 -179.5t217 -65.5l18 -30q-179 -254 -240 -412.5t-61 -306.5q0 -327 273 -327q140 0 204.5 81.5t64.5 245.5v287h305v-333q0 -251 -155.5 -393.5t-418.5 -142.5q-261 0 -427 157.5
t-166 408.5q0 128 53.5 281.5z" />
    <glyph glyph-name="uni0547" unicode="&#x547;" horiz-adv-x="1410" 
d="M165 1483l1102 -140l-30 -256l-387 29q-200 -122 -300 -264.5t-100 -309.5q0 -147 66.5 -227t191.5 -80q140 0 204.5 81.5t64.5 245.5v11h305v-57q0 -251 -155.5 -393.5t-418.5 -142.5q-264 0 -421 149.5t-157 414.5q0 186 103.5 359t275.5 277l-375 47z" />
    <glyph glyph-name="uni0548" unicode="&#x548;" horiz-adv-x="1532" 
d="M1342 936v-936h-305v890q0 168 -66 252.5t-205 84.5q-131 0 -201 -79.5t-70 -257.5v-890h-305v936q0 256 155 401t421 145t421 -145t155 -401z" />
    <glyph glyph-name="uni0549" unicode="&#x549;" horiz-adv-x="1376" 
d="M1162 -2q-253 18 -527 146.5t-517 339.5l167 190q72 -66 150.5 -124.5t176.5 -112.5q174 149 250 273t76 250q0 129 -65 198.5t-193 69.5q-120 0 -187 -57.5t-67 -147.5v-45h-305v47q0 201 157 328.5t402 127.5q277 0 427.5 -134t150.5 -377q0 -146 -77.5 -287.5
t-325.5 -358.5q99 -38 175.5 -54.5t131.5 -16.5v-255z" />
    <glyph glyph-name="uni054A" unicode="&#x54a;" horiz-adv-x="1824" 
d="M1329 793q0 198 -70.5 305.5t-216.5 131.5v-882h-305v882q-145 -28 -216 -128.5t-71 -308.5v-140h-305v176q0 325 189 489.5t563 164.5q361 0 549 -162.5t188 -491.5v-829h-305v793z" />
    <glyph glyph-name="uni054B" unicode="&#x54b;" horiz-adv-x="1358" 
d="M391 426q62 0 97.5 8.5t49.5 22.5q0 43 -29 82.5t-121 97.5t-146.5 111.5t-80.5 120t-26 146.5q0 203 159.5 336t393.5 133q247 0 404 -138.5t157 -350.5q0 -160 -126 -323t-362 -296h242q164 0 217 -49.5t53 -210.5v-141h-264v55q0 71 -26.5 90.5t-100.5 19.5h-491v-165
h-255v512h255v-61zM718 577q104 92 157.5 199.5t53.5 218.5q0 100 -69 168t-180 68q-99 0 -162 -59.5t-63 -156.5q0 -70 37 -127t131.5 -141.5t94.5 -169.5z" />
    <glyph glyph-name="uni054C" unicode="&#x54c;" horiz-adv-x="1714" 
d="M1342 0h-305v890q0 168 -66 252.5t-205 84.5q-131 0 -201 -79.5t-70 -257.5v-890h-305v936q0 256 155 401t421 145t421 -145t155 -401v-214h327v-251h-327v-471z" />
    <glyph glyph-name="uni054D" unicode="&#x54d;" horiz-adv-x="1540" 
d="M194 526v936h305v-890q0 -168 66 -252.5t205 -84.5t205 84.5t66 252.5v890h305v-936q0 -256 -155 -401t-421 -145t-421 145t-155 401z" />
    <glyph glyph-name="uni054E" unicode="&#x54e;" horiz-adv-x="1733" 
d="M1056 271q0 66 15 223h-17q-73 -99 -171 -145t-236 -46q-235 0 -368.5 137.5t-133.5 372.5v134h305v-100q0 -145 68 -217t215 -72q323 0 323 328v577h305v-1212h327v-251h-632v271z" />
    <glyph glyph-name="uni054F" unicode="&#x54f;" horiz-adv-x="1294" 
d="M370 21.5q-126 27.5 -250 81.5v272q118 -58 250.5 -92t249.5 -34q129 0 196.5 43.5t67.5 124.5q0 83 -86 134t-291.5 129t-296.5 174t-91 238q0 181 160 293t407 112q108 0 224.5 -25t208.5 -67l-57 -246q-91 37 -194 61t-186 24q-131 0 -192 -40.5t-61 -110.5
q0 -69 67 -114.5t243 -110t269 -124.5t139.5 -138t46.5 -189q0 -191 -161 -307t-421 -116q-116 0 -242 27.5z" />
    <glyph glyph-name="uni0550" unicode="&#x550;" horiz-adv-x="1400" 
d="M495 0h-305v936q0 259 145.5 402.5t400.5 143.5q254 0 400 -143t146 -403v-53h-305v7q0 178 -59 257.5t-182 79.5t-182 -79.5t-59 -257.5v-890z" />
    <glyph glyph-name="uni0551" unicode="&#x551;" horiz-adv-x="1367" 
d="M178 79v273q125 -61 237 -89t206 -28q159 0 245.5 50.5t86.5 145.5q0 84 -80 143t-223 85l-403 -120l-60 202l207 56v18q-126 50 -193 131t-67 181q0 164 148 260t370 96q230 0 373.5 -95t143.5 -261q0 -106 -66 -185t-184 -127v-18q162 -49 251.5 -146.5t89.5 -225.5
q0 -201 -177.5 -323t-452.5 -122q-117 0 -242.5 28t-209.5 71zM660 955q101 25 151.5 62t50.5 89q0 64 -57.5 99t-152.5 35q-94 0 -152.5 -35t-58.5 -99q0 -53 52.5 -90.5t166.5 -60.5z" />
    <glyph glyph-name="uni0552" unicode="&#x552;" 
d="M205 1462h305v-320h86q113 0 173.5 -25.5t115.5 -82t117 -181.5t99.5 -176t106.5 -51h42v-251h-75q-83 0 -142.5 24t-111.5 80.5t-91 134.5l-79.5 153t-83 99.5t-126.5 24.5h-31v-891h-305v1462z" />
    <glyph glyph-name="uni0553" unicode="&#x553;" horiz-adv-x="1855" 
d="M774 205h-22q-277 0 -460 154.5t-183 395.5q0 237 173 392.5t439 155.5h53v159h305v-159h53q266 0 439 -155.5t173 -392.5q0 -242 -183.5 -396t-459.5 -154h-22v-205h-305v205zM774 460v590h-41q-143 0 -230 -80t-87 -215q0 -142 90.5 -218.5t253.5 -76.5h14zM1093 460
q163 0 253.5 76.5t90.5 218.5q0 135 -87 215t-230 80h-41v-590h14z" />
    <glyph glyph-name="uni0554" unicode="&#x554;" horiz-adv-x="1474" 
d="M303 190h-248v251h248v538q0 233 139 368.5t377 135.5q223 0 366.5 -118.5t143.5 -310.5q0 -205 -135.5 -322.5t-366.5 -117.5h-219v-173h720v-251h-720v-190h-305v190zM780 865q111 0 170 47t59 142q0 79 -46.5 127.5t-141.5 48.5q-109 0 -161 -72t-52 -214v-79h172z
" />
    <glyph glyph-name="uni0555" unicode="&#x555;" horiz-adv-x="1630" 
d="M307 177q-177 197 -177 558q0 359 178 554.5t510 195.5q331 0 507.5 -196t176.5 -556q0 -358 -177 -555.5t-509 -197.5t-509 197zM1089 360q93 125 93 373t-92 373.5t-272 125.5t-274 -125.5t-94 -373.5t93 -373t273 -125t273 125z" />
    <glyph glyph-name="uni0556" unicode="&#x556;" horiz-adv-x="1704" 
d="M437.5 9.5q-172.5 29.5 -322.5 98.5v276q144 -69 278 -106t260 -42v426q-274 53 -391 147t-117 253q0 181 160.5 290.5t415.5 109.5h237v-589q358 -34 502 -128t144 -279q0 -224 -220 -355t-584 -131q-190 0 -362.5 29.5zM958 633v-398q159 4 242.5 57.5t83.5 150.5
q0 83 -74.5 129t-251.5 61zM653 907v302q-86 0 -137 -38.5t-51 -109.5q0 -65 46 -101.5t142 -52.5z" />
    <glyph glyph-name="uni0559" unicode="&#x559;" horiz-adv-x="488" 
d="M376 888q-157 2 -252 88.5t-95 218.5q0 110 70 201t208 160l101 -149q-74 -48 -101.5 -86t-27.5 -79q0 -48 25 -73.5t72 -25.5v-255z" />
    <glyph glyph-name="uni055A" unicode="&#x55a;" horiz-adv-x="488" 
d="M80 1037q57 37 93 76t36 89q0 48 -25 73.5t-72 25.5v255q157 -2 252 -88.5t95 -218.5q0 -110 -70 -201t-208 -160z" />
    <glyph glyph-name="uni055B" unicode="&#x55b;" horiz-adv-x="598" 
d="M105 1235l10 43l34 166q14 66 25 124t16 100h255l18 -30q-26 -93 -61.5 -189.5l-81.5 -213.5h-215z" />
    <glyph glyph-name="uni055C" unicode="&#x55c;" horiz-adv-x="647" 
d="M105 1235q0 63 16.5 122.5t63.5 99t102.5 70.5t55.5 95v46h249q0 -114 -36.5 -167.5t-130.5 -110.5t-94 -130v-25h-226z" />
    <glyph glyph-name="uni055D" unicode="&#x55d;" horiz-adv-x="628" 
d="M248 1235l-81.5 213.5t-61.5 189.5l18 30h255q5 -42 16 -100t25 -124l44 -209h-215z" />
    <glyph glyph-name="uni055E" unicode="&#x55e;" horiz-adv-x="903" 
d="M105 1152q0 237 121 391.5t305 154.5q123 0 200 -72t77 -174q0 -114 -84.5 -183t-227.5 -69v187q50 0 70.5 18t20.5 40t-19 36.5t-52 14.5q-88 0 -139.5 -89.5t-51.5 -254.5h-220z" />
    <glyph glyph-name="uni055F" unicode="&#x55f;" horiz-adv-x="820" 
d="M491 1532q-69 27 -98 27q-40 0 -60 -16.5t-20 -40.5q0 -42 22 -56t64 -14h393v-197h-411q-154 0 -230 60.5t-76 193.5q0 121 88 193.5t222 72.5q71 0 166 -30z" />
    <glyph glyph-name="uni0561" unicode="&#x561;" horiz-adv-x="2023" 
d="M889 142q-43 -70 -136 -115.5t-199 -45.5q-186 0 -286.5 97.5t-100.5 280.5v670h301v-610q0 -97 46.5 -148t124.5 -51q105 0 160.5 87t55.5 256v466h301v-610q0 -97 46.5 -148t124.5 -51q105 0 160.5 87t55.5 256v466h301v-1029h-234l-37 132h-17q-43 -69 -122.5 -110
t-191.5 -41q-118 0 -203 40t-133 121h-17z" />
    <glyph glyph-name="uni0562" unicode="&#x562;" horiz-adv-x="1331" 
d="M1168 435h-301v171q0 97 -46.5 148t-124.5 51q-105 0 -160.5 -87t-55.5 -256v-237h718v-225h-718v-527h-301v1556h234l37 -132h17q43 69 122.5 110t191.5 41q184 0 285.5 -97.5t101.5 -280.5v-235z" />
    <glyph glyph-name="uni0563" unicode="&#x563;" horiz-adv-x="1512" 
d="M1138 225h334v-225h-334v-527h-301v418q0 82 15 241h-18q-96 -150 -293 -150q-198 0 -310.5 145t-112.5 385q0 248 114.5 392t313.5 144q99 0 176 -38t129 -113h16l37 132h234v-804zM788.5 729.5q-48.5 74.5 -166.5 74.5q-93 0 -145 -76.5t-52 -218.5q0 -145 49 -218.5
t152 -73.5t157 71.5t54 219.5q0 147 -48.5 221.5z" />
    <glyph glyph-name="uni0564" unicode="&#x564;" horiz-adv-x="1542" 
d="M867 606q0 97 -46.5 148t-124.5 51q-105 0 -160.5 -87t-55.5 -256v-462h-301v1029h234l37 -132h17q43 69 122.5 110t191.5 41q184 0 285.5 -97.5t101.5 -280.5v-445h334v-225h-334v-492h-301v1098z" />
    <glyph glyph-name="uni0565" unicode="&#x565;" horiz-adv-x="1338" 
d="M855 594h301v-594h-234l-37 132h-17q-43 -69 -122.5 -110t-191.5 -41q-186 0 -286.5 97.5t-100.5 280.5v1197h301v-527h718v-225h-718v-385q0 -97 46.5 -148t124.5 -51q105 0 160.5 87t55.5 256v31z" />
    <glyph glyph-name="uni0566" unicode="&#x566;" horiz-adv-x="1318" 
d="M837 -109q0 82 15 241h-18q-96 -150 -293 -150q-198 0 -310.5 145t-112.5 385q0 248 114.5 392t313.5 144q99 0 176 -38t129 -113h16l37 132h234v-1331h334v-225h-635v418zM788.5 729.5q-48.5 74.5 -166.5 74.5q-93 0 -145 -76.5t-52 -218.5q0 -145 49 -218.5t152 -73.5
t157 71.5t54 219.5q0 147 -48.5 221.5z" />
    <glyph glyph-name="uni0567" unicode="&#x567;" horiz-adv-x="1091" 
d="M686 -174q0 100 -31 137t-159 37h-317v1556h301v-527h520v-225h-520v-578h161q191 0 268.5 -81t77.5 -319h-301z" />
    <glyph glyph-name="uni0568" unicode="&#x568;" horiz-adv-x="1334" 
d="M867 606q0 97 -46.5 148t-124.5 51q-105 0 -160.5 -87t-55.5 -256v-764h688v-225h-989v1556h234l37 -132h17q43 69 122.5 110t191.5 41q184 0 285.5 -97.5t101.5 -280.5v-670h-301v606z" />
    <glyph glyph-name="uni0569" unicode="&#x569;" horiz-adv-x="1631" 
d="M824 805q-163 0 -253.5 -94t-90.5 -266v-972h-301v1556h234l37 -132h16q59 68 167.5 109.5t229.5 41.5q231 0 386 -130t182 -351l168 -60l-45 -206l-134 40q-37 -169 -149 -264.5t-271 -95.5q-162 0 -263 88t-101 223q0 147 100 235.5t257 88.5q86 0 131 -10
q-21 95 -101.5 147t-198.5 52zM1000 174q64 0 100 53.5t36 151.5q-65 10 -111 10q-62 0 -97.5 -31t-35.5 -84q0 -40 27.5 -70t80.5 -30z" />
    <glyph glyph-name="uni056A" unicode="&#x56a;" horiz-adv-x="1435" 
d="M250 894.5q132 134.5 367 134.5q35 0 72 -5.5t67 -11.5l34 -8q17 -4 34 -9v561h301v-631l264 -71l-47 -225l-217 67v-189q0 -226 -142 -375.5t-368 -149.5q-227 0 -362 143t-135 378q0 257 132 391.5zM824 537v223q-11 4 -23 7l-25 6q-22 5 -53.5 9.5t-69.5 4.5
q-116 0 -172 -66.5t-56 -220.5q0 -135 50.5 -204.5t145.5 -69.5q110 0 156.5 78t46.5 233z" />
    <glyph glyph-name="uni056B" unicode="&#x56b;" 
d="M866 606q0 97 -46.5 148t-124.5 51q-105 0 -160.5 -87t-55.5 -256v-989h-301v2083h301v-418q0 -82 -15 -241h18q43 71 119.5 111t179.5 40q184 0 285.5 -97.5t101.5 -280.5v-670h-302v606z" />
    <glyph glyph-name="uni056C" unicode="&#x56c;" horiz-adv-x="661" 
d="M179 1029h301v-1331h335v-225h-636v1556z" />
    <glyph glyph-name="uni056D" unicode="&#x56d;" horiz-adv-x="2024" 
d="M1164 613l-7 -132q-2 -33 -2 -62q0 -97 46.5 -148t124.5 -51q105 0 160.5 87t55.5 256v466h301v-1029h-234l-37 132h-17q-43 -69 -122.5 -110t-191.5 -41q-186 0 -286.5 97.5t-100.5 280.5q0 51 5 111t5 112q0 223 -175 223q-103 0 -156 -87t-53 -255v-990h-301v2083h301
v-418q0 -82 -15 -241h18q45 70 124.5 110.5t162.5 40.5q184 0 289.5 -100t105.5 -278q0 -26 -1 -57z" />
    <glyph glyph-name="uni056E" unicode="&#x56e;" horiz-adv-x="1285" 
d="M189 768.5q71 119.5 180 180.5t220 61h36q-30 51 -65 102l-66 92l-36 47l-35 45l340 260l152 -189l-126 -99l49 -74l56.5 -88l58.5 -96h258v-225h-149q28 -55 48.5 -135.5t20.5 -157.5q0 -218 -147 -364t-373 -146q-222 0 -357.5 141.5t-135.5 367.5q0 158 71 277.5z
M807.5 645.5q-22.5 76.5 -57.5 139.5h-91q-99 0 -169.5 -82t-70.5 -224q0 -120 53.5 -188t151.5 -68q95 0 150.5 72t55.5 193q0 81 -22.5 157.5z" />
    <glyph glyph-name="uni056F" unicode="&#x56f;" horiz-adv-x="1336" 
d="M856 1029h301v-1556h-301v418q0 82 15 241h-18q-43 -71 -118 -111t-181 -40q-186 0 -286.5 97.5t-100.5 280.5v1197h301v-1137q0 -97 46.5 -148t124.5 -51q105 0 160.5 87t55.5 256z" />
    <glyph glyph-name="uni0570" unicode="&#x570;" horiz-adv-x="1291" 
d="M850 278q0 112 -44 163t-131 51q-73 0 -121 -38.5t-65 -102.5l-364 44v76q0 504 180 798.5t521 294.5q111 0 208 -43t160 -108l-197 -205q-31 47 -83 79t-118 32q-168 0 -265.5 -208.5t-97.5 -526.5h16q48 75 129.5 113t187.5 38q183 0 284 -99t101 -279v-357h-301v278z
" />
    <glyph glyph-name="uni0571" unicode="&#x571;" horiz-adv-x="1369" 
d="M221 673q116 136 451 359l49 33q40 26 59 45.5t19 34.5q0 21 -50 35.5t-222 34t-229.5 51t-93 91.5t-35.5 199h236q2 -67 82.5 -94.5t309 -59t292 -70.5t63.5 -97q0 -48 -29 -96.5t-96 -102.5l-79 -63l222 -747h162v-226h-373l-35 132h-16q-46 -67 -142.5 -109
t-209.5 -42q-197 0 -324 105.5t-127 281.5q0 169 116 305zM721 793q-201 -156 -255 -228.5t-54 -160.5q0 -86 60 -135t147 -49q66 0 131.5 27t102.5 64z" />
    <glyph glyph-name="uni0572" unicode="&#x572;" horiz-adv-x="1336" 
d="M867 606q0 97 -46.5 148t-124.5 51q-105 0 -160.5 -87t-55.5 -256v-462h-301v1029h234l37 -132h17q43 69 122.5 110t191.5 41q184 0 285.5 -97.5t101.5 -280.5v-972h334v-225h-635v1133z" />
    <glyph glyph-name="uni0573" unicode="&#x573;" horiz-adv-x="1285" 
d="M164.5 632q9.5 86 27.5 176l-155 7v225l220 -9q94 244 250.5 389.5t345.5 145.5q94 0 171 -31t128 -83l-127 -198q-21 27 -67.5 48.5t-104.5 21.5q-183 0 -296 -296q292 -9 443 -158.5t151 -431.5v-438h-234l-37 132h-16q-48 -75 -129.5 -113t-187.5 -38
q-181 0 -286.5 136.5t-105.5 380.5q0 48 9.5 134zM752.5 715.5q-91.5 81.5 -258.5 88.5q-18 -87 -25 -158.5t-7 -125.5q0 -152 42.5 -226t133.5 -74q100 0 153 80t53 185q0 149 -91.5 230.5z" />
    <glyph glyph-name="uni0574" unicode="&#x574;" horiz-adv-x="1330" 
d="M855 666q0 96 -34.5 180.5t-127 199t-92.5 211.5q0 137 113.5 223t283.5 86q186 0 291.5 -95t105.5 -256h-301q0 62 -26 94t-71 32q-42 0 -65.5 -23t-23.5 -63q0 -51 80 -140.5t124 -187t44 -217.5v-710h-234l-37 132h-17q-43 -69 -122.5 -110t-191.5 -41
q-186 0 -286.5 97.5t-100.5 280.5v670h301v-610q0 -97 46.5 -148t124.5 -51q105 0 160.5 87t55.5 256v103z" />
    <glyph glyph-name="uni0575" unicode="&#x575;" horiz-adv-x="660" 
d="M75 -308h14q85 0 134 37t49 112q0 48 -14 101l-32 114q-17 60 -32 136t-15 169v668h301v-687q0 -140 42.5 -266t42.5 -215q0 -181 -108 -284.5t-288 -103.5h-94v219z" />
    <glyph glyph-name="uni0576" unicode="&#x576;" horiz-adv-x="1334" 
d="M857 563v466h301v-1029h-234l-37 132h-17q-43 -66 -120 -108.5t-195 -42.5q-192 0 -305.5 129.5t-113.5 351.5q0 121 41.5 258t124.5 282q-94 33 -143 97.5t-49 143.5q0 72 25.5 147.5t60.5 163.5l260 -84l-31 -85.5t-14 -74.5q0 -57 48.5 -96.5t129.5 -70.5l8 -34
q-63 -155 -108.5 -328t-45.5 -294q0 -134 49 -200.5t144 -66.5q109 0 165 86.5t56 256.5z" />
    <glyph glyph-name="uni0577" unicode="&#x577;" horiz-adv-x="1062" 
d="M140 745l-65 229q81 37 168.5 55.5t168.5 18.5q252 0 391 -115.5t139 -314.5q0 -124 -64 -240.5t-206.5 -303t-180 -239t-37.5 -89.5q0 -21 17 -34.5t52 -13.5h407v-225h-777q-51 0 -83.5 25t-32.5 74q0 79 193 324t299 412t106 306q0 89 -61 140.5t-174 51.5
q-73 0 -134 -16.5t-126 -44.5z" />
    <glyph glyph-name="uni0578" unicode="&#x578;" 
d="M179 0v1029h234l37 -132h17q43 69 122.5 110t191.5 41q184 0 285.5 -97.5t101.5 -280.5v-670h-301v606q0 97 -46.5 148t-124.5 51q-105 0 -160.5 -87t-55.5 -256v-462h-301z" />
    <glyph glyph-name="uni0579" unicode="&#x579;" horiz-adv-x="812" 
d="M384 534l-69 53q-111 79 -156.5 146.5t-45.5 138.5q0 97 56 157h290q-24 -44 -24 -89q0 -34 17.5 -64t54 -60.5t114.5 -87l131 -94.5q-419 -818 -419 -898q0 -38 69 -38h350v-225h-705q-116 0 -116 89q0 31 31.5 108.5t158 337.5l203.5 409z" />
    <glyph glyph-name="uni057A" unicode="&#x57a;" horiz-adv-x="2023" 
d="M889 142q-43 -70 -136 -115.5t-199 -45.5q-186 0 -286.5 97.5t-100.5 280.5v670h301v-610q0 -97 46.5 -148t124.5 -51q105 0 160.5 87t55.5 256v466h301v-610q0 -97 46.5 -148t124.5 -51q105 0 160.5 87t55.5 256v466h301v-1556h-300v418q0 82 15 241h-18
q-43 -71 -118 -111t-181 -40q-121 0 -205.5 41.5t-130.5 119.5h-17z" />
    <glyph glyph-name="uni057B" unicode="&#x57b;" horiz-adv-x="1231" 
d="M491 103q-20 49 -55.5 85t-76.5 68l-85 65q-75 57 -116.5 132t-41.5 180q0 176 143 296t360 120q216 0 354 -114t138 -290q0 -175 -124 -321t-312 -329.5t-188 -248.5q0 -21 17 -34.5t52 -13.5h515v-225h-830q-51 0 -83.5 25t-32.5 74q0 63 77.5 180t250.5 309zM479 756
q-56 -51 -56 -133q0 -89 87.5 -169.5t117.5 -194.5q80 98 128 189t48 187q0 85 -49 128.5t-134 43.5q-86 0 -142 -51z" />
    <glyph glyph-name="uni057C" unicode="&#x57c;" horiz-adv-x="1412" 
d="M179 1029h234l37 -132h16q48 72 133 111.5t191 39.5q190 0 306 -110.5t116 -285.5q0 -81 -29 -172t-119 -239v-16h313v-225h-629v202q89 141 123 230t34 156q0 101 -57 159t-146 58q-109 0 -165.5 -87.5t-56.5 -255.5v-462h-301v1029z" />
    <glyph glyph-name="uni057D" unicode="&#x57d;" 
d="M1156 1029v-1029h-234l-37 132h-17q-43 -69 -122.5 -110t-191.5 -41q-186 0 -286.5 97.5t-100.5 280.5v670h301v-610q0 -97 46.5 -148t124.5 -51q105 0 160.5 87t55.5 256v466h301z" />
    <glyph glyph-name="uni057E" unicode="&#x57e;" horiz-adv-x="1337" 
d="M856 1556h301v-1858h334v-225h-635v418q0 82 15 241h-18q-43 -71 -118 -111t-181 -40q-186 0 -286.5 97.5t-100.5 280.5v670h301v-610q0 -97 46.5 -148t124.5 -51q105 0 160.5 87t55.5 256z" />
    <glyph glyph-name="uni057F" unicode="&#x57f;" horiz-adv-x="2015" 
d="M1089 1029l37 -132h17q43 69 122.5 110t191.5 41q184 0 285.5 -97.5t101.5 -280.5v-670h-301v606q0 97 -46.5 148t-124.5 51q-105 0 -160.5 -87t-55.5 -256v-462h-234l-37 132h-17q-43 -69 -122.5 -110t-191.5 -41q-186 0 -286.5 97.5t-100.5 280.5v670h301v-610
q0 -97 46.5 -148t124.5 -51q105 0 160.5 87t55.5 256v466h234z" />
    <glyph glyph-name="uni0580" unicode="&#x580;" 
d="M179 1029h234l37 -132h17q43 69 122.5 110t191.5 41q184 0 285.5 -97.5t101.5 -280.5v-670h-301v606q0 97 -46.5 148t-124.5 51q-105 0 -160.5 -87t-55.5 -256v-989h-301v1556z" />
    <glyph glyph-name="uni0581" unicode="&#x581;" horiz-adv-x="1317" 
d="M1138 -22q0 -266 -136 -390.5t-443 -124.5q-88 0 -169 15.5t-166 45.5v225q73 -31 157 -48.5t187 -17.5q141 0 205 49.5t64 158.5q0 82 15 241h-18q-96 -150 -293 -150q-198 0 -310.5 145t-112.5 385q0 248 114.5 392t313.5 144q99 0 176 -38t129 -113h16l37 132h234
v-1051zM788.5 729.5q-48.5 74.5 -166.5 74.5q-93 0 -145 -76.5t-52 -218.5q0 -145 49 -218.5t152 -73.5t157 71.5t54 219.5q0 147 -48.5 221.5z" />
    <glyph glyph-name="uni0582" unicode="&#x582;" horiz-adv-x="851" 
d="M179 1029h301v-804h335v-225h-636v1029z" />
    <glyph glyph-name="uni0583" unicode="&#x583;" horiz-adv-x="2012" 
d="M1157 1138q0 -82 -15 -241h18q43 71 119.5 111t179.5 40q184 0 285.5 -97.5t101.5 -280.5v-670h-302v606q0 97 -46.5 148t-124.5 51q-105 0 -160.5 -87t-55.5 -256v-989h-301v418q0 82 15 241h-18q-43 -71 -118 -111t-181 -40q-186 0 -286.5 97.5t-100.5 280.5v670h301
v-610q0 -97 46.5 -148t124.5 -51q105 0 160.5 87t55.5 256v993h302v-418z" />
    <glyph glyph-name="uni0584" unicode="&#x584;" horiz-adv-x="1318" 
d="M180 -321h-147v220h147v1130h234l37 -132h16q52 75 129 113t176 38q199 0 313.5 -144t114.5 -392q0 -240 -112.5 -385t-310.5 -145q-197 0 -293 150h-18q15 -159 15 -193v-40h689v-220h-689v-206h-301v206zM841 727.5q-52 76.5 -145 76.5q-118 0 -166.5 -74.5
t-48.5 -221.5q0 -148 54 -219.5t157 -71.5t152 73.5t49 218.5q0 142 -52 218.5z" />
    <glyph glyph-name="uni0585" unicode="&#x585;" horiz-adv-x="1270" 
d="M263 130q-145 148 -145 384q0 237 143.5 385.5t374.5 148.5t374.5 -148.5t143.5 -385.5q0 -238 -141 -385t-372 -147q-233 0 -378 148zM794.5 301q52.5 78 52.5 215q0 141 -53.5 215.5t-158.5 74.5t-157.5 -74.5t-52.5 -215.5q0 -137 53.5 -215t158.5 -78t157.5 78z" />
    <glyph glyph-name="uni0586" unicode="&#x586;" horiz-adv-x="1686" 
d="M638 -18q-132 10 -279 43.5t-265 78.5v261q151 -62 298 -100t246 -42v434q-263 38 -397 141t-134 281q0 198 176 309.5t481 111.5h165v-628q336 -28 495 -138.5t159 -306.5q0 -194 -179.5 -314t-474.5 -131v-474h-291v474zM638 1258q-94 0 -159 -48.5t-65 -127.5
q0 -71 60.5 -118t163.5 -62v356zM929 223q180 4 263.5 54.5t83.5 146.5q0 89 -92.5 145t-254.5 62v-408z" />
    <glyph glyph-name="uni0587" unicode="&#x587;" horiz-adv-x="1538" 
d="M880 132q-43 -69 -122.5 -110t-191.5 -41q-186 0 -286.5 97.5t-100.5 280.5v1197h301v-1137q0 -97 46.5 -148t124.5 -51q105 0 160.5 87t55.5 256v466h301v-804h334v-225h-568l-37 132h-17z" />
    <glyph glyph-name="uni0589" unicode="&#x589;" horiz-adv-x="634" 
d="M446.5 268q44.5 -44 44.5 -125q0 -80 -46.5 -125t-127.5 -45q-85 0 -130 44.5t-45 125.5q0 169 175 169q85 0 129.5 -44zM446 1001.5q45 -43.5 45 -126.5q0 -80 -46 -124.5t-128 -44.5q-84 0 -129.5 43.5t-45.5 125.5q0 170 175 170q84 0 129 -43.5z" />
    <glyph glyph-name="uni058A" unicode="&#x58a;" horiz-adv-x="879" 
d="M97 750h242q0 -138 114 -138q142 0 348 39l50 -172q-84 -44 -225 -76t-249 -32q-144 0 -212 91.5t-68 287.5z" />
    <glyph glyph-name="uni058F" unicode="&#x58f;" horiz-adv-x="1612" 
d="M962 947q0 120 -68.5 200t-199.5 80t-201 -79.5t-70 -257.5v-7h-305v53q0 256 155 401t421 145q262 0 419 -145.5t157 -389.5h297v-191h-297v-156h297v-191h-297v-409h-305v409h-297v191h297v156h-297v191h294z" />
    </font>
</defs>
</svg>
